<svg xmlns="http://www.w3.org/2000/svg" version="1.1" xmlns:xlink="http://www.w3.org/1999/xlink" xmlns:svgjs="http://svgjs.dev/svgjs" width="128" height="128" viewBox="0 0 128 128"><g transform="matrix(0.5255102040816326,0,0,0.5255102040816326,30.528948212948556,12.333870967741937)"><svg viewBox="0 0 101 155" data-background-color="#151718" preserveAspectRatio="xMidYMid meet" height="196" width="128" xmlns="http://www.w3.org/2000/svg" xmlns:xlink="http://www.w3.org/1999/xlink"><g id="tight-bounds" transform="matrix(1,0,0,1,-0.2426470588235361,0.25)"><svg viewBox="0 0 101.48529411764706 154.5" height="154.5" width="101.48529411764706"><g><svg viewBox="0 0 101.48529411764706 154.5" height="154.5" width="101.48529411764706"><g><svg viewBox="0 0 101.48529411764706 154.5" height="154.5" width="101.48529411764706"><g id="textblocktransform"><svg viewBox="0 0 101.48529411764706 154.5" height="154.5" width="101.48529411764706" id="textblock"><g><svg viewBox="0 0 101.48529411764706 154.5" height="154.5" width="101.48529411764706"><g transform="matrix(1,0,0,1,0,0)"><svg width="101.48529411764706" viewBox="-1.61 -37.35 24.53 37.35" height="154.5" data-palette-color="#df4655"><path d="M8.37-5.88L8.37-9.4 8.4-14.5 8.4-17.29Q8.4-19.48 6.59-23.54L6.59-23.54Q5.2-26.59 4.71-27.56L4.71-27.56 3.91-29.17Q0.76-35.77-1.61-37.35L-1.61-37.35 8.23-37.35Q8.06-36.87 8.06-36.11 8.06-35.35 8.18-34.51 8.3-33.67 8.5-32.79L8.5-32.79Q8.86-31.1 9.45-29.69L9.45-29.69 10.62-26.86Q11.23-25.44 12.13-23.97L12.13-23.97Q13.28-25.71 13.96-27.37L13.96-27.37 14.89-29.66Q16.28-33.2 16.28-36.4L16.28-36.4Q16.28-36.94 16.21-37.35L16.21-37.35 22.92-37.35Q21.58-35.94 20.12-33.23 18.65-30.52 18.07-29.3L18.07-29.3 16.82-26.59Q14.28-20.97 14.28-17.6L14.28-17.6 14.28-6.45Q14.28-3.96 14.87-2.86 15.45-1.76 16.11-1.15 16.77-0.54 17.7 0L17.7 0 5.22 0Q8.37-1.61 8.37-5.88L8.37-5.88Z" opacity="1" transform="matrix(1,0,0,1,0,0)" fill="#df4655" class="wordmark-text-0" data-fill-palette-color="primary" id="text-0"></path></svg></g></svg></g></svg></g></svg></g><g></g></svg></g><defs></defs></svg><rect width="101.48529411764706" height="154.5" fill="none" stroke="none" visibility="hidden"></rect></g></svg></g></svg>